<svg width="281" height="103" viewBox="0 0 281 103" fill="none" xmlns="http://www.w3.org/2000/svg">
<g style="mix-blend-mode:screen">
<path d="M126.975 69.5268H113.543V34.6177H126.838C130.429 34.6177 133.531 35.3166 136.145 36.7143C138.77 38.1007 140.793 40.1007 142.213 42.7143C143.645 45.3166 144.361 48.4359 144.361 52.0722C144.361 55.7086 143.651 58.8336 142.23 61.4472C140.81 64.0495 138.799 66.0495 136.196 67.4472C133.594 68.8336 130.52 69.5268 126.975 69.5268ZM123.02 61.4813H126.634C128.361 61.4813 129.833 61.2029 131.049 60.6461C132.276 60.0893 133.208 59.1291 133.844 57.7654C134.492 56.4018 134.816 54.5041 134.816 52.0722C134.816 49.6404 134.486 47.7427 133.827 46.3791C133.179 45.0154 132.225 44.0552 130.963 43.4984C129.713 42.9416 128.179 42.6632 126.361 42.6632H123.02V61.4813ZM148.746 69.5268V34.6177H173.905V42.2541H158.223V48.2541H172.61V55.8904H158.223V61.8904H173.837V69.5268H148.746ZM197.424 45.5268C197.333 44.3904 196.906 43.5041 196.145 42.8677C195.395 42.2313 194.253 41.9132 192.719 41.9132C191.742 41.9132 190.941 42.0325 190.316 42.2711C189.702 42.4984 189.247 42.8109 188.952 43.2086C188.656 43.6063 188.503 44.0609 188.492 44.5722C188.469 44.9927 188.543 45.3734 188.713 45.7143C188.895 46.0438 189.179 46.345 189.566 46.6177C189.952 46.8791 190.446 47.1177 191.049 47.3336C191.651 47.5495 192.367 47.7427 193.196 47.9132L196.06 48.5268C197.992 48.9359 199.645 49.4757 201.02 50.1461C202.395 50.8166 203.52 51.6063 204.395 52.5154C205.27 53.4132 205.912 54.4245 206.321 55.5495C206.742 56.6745 206.958 57.9018 206.969 59.2313C206.958 61.5268 206.384 63.47 205.247 65.0609C204.111 66.6518 202.486 67.862 200.372 68.6916C198.27 69.5211 195.742 69.9359 192.787 69.9359C189.753 69.9359 187.105 69.487 184.844 68.5893C182.594 67.6916 180.844 66.3109 179.594 64.4472C178.355 62.5722 177.73 60.1745 177.719 57.2541H186.719C186.776 58.3222 187.043 59.22 187.52 59.9472C187.997 60.6745 188.668 61.2257 189.531 61.6007C190.406 61.9757 191.446 62.1632 192.651 62.1632C193.662 62.1632 194.509 62.0382 195.191 61.7882C195.872 61.5382 196.389 61.1916 196.742 60.7484C197.094 60.3052 197.276 59.7995 197.287 59.2313C197.276 58.6972 197.1 58.2313 196.759 57.8336C196.429 57.4245 195.884 57.0609 195.122 56.7427C194.361 56.4132 193.333 56.1063 192.037 55.8222L188.56 55.0722C185.469 54.4018 183.031 53.2825 181.247 51.7143C179.475 50.1347 178.594 47.9813 178.605 45.2541C178.594 43.0382 179.185 41.1007 180.378 39.4416C181.583 37.7711 183.247 36.47 185.372 35.5382C187.509 34.6063 189.958 34.1404 192.719 34.1404C195.537 34.1404 197.975 34.612 200.031 35.5552C202.088 36.4984 203.674 37.8279 204.787 39.5438C205.912 41.2484 206.48 43.2427 206.492 45.5268H197.424ZM233.245 46.1404C233.097 45.5382 232.864 45.0097 232.546 44.5552C232.228 44.0893 231.83 43.6972 231.353 43.3791C230.887 43.0495 230.341 42.8052 229.716 42.6461C229.103 42.4757 228.426 42.3904 227.688 42.3904C226.097 42.3904 224.739 42.7711 223.614 43.5325C222.5 44.2938 221.648 45.3904 221.057 46.8222C220.478 48.2541 220.188 49.9813 220.188 52.0041C220.188 54.0495 220.466 55.7995 221.023 57.2541C221.58 58.7086 222.409 59.8222 223.512 60.595C224.614 61.3677 225.983 61.7541 227.62 61.7541C229.063 61.7541 230.262 61.5438 231.216 61.1234C232.182 60.7029 232.904 60.1063 233.381 59.3336C233.858 58.5609 234.097 57.6518 234.097 56.6063L235.733 56.7768H227.756V50.0268H243.233V54.8677C243.233 58.0495 242.557 60.7711 241.205 63.0325C239.864 65.2825 238.012 67.0097 235.648 68.2143C233.296 69.4075 230.597 70.0041 227.551 70.0041C224.154 70.0041 221.171 69.2825 218.603 67.8393C216.034 66.3961 214.029 64.3393 212.585 61.6688C211.154 58.9984 210.438 55.8222 210.438 52.1404C210.438 49.2541 210.875 46.6972 211.75 44.47C212.637 42.2427 213.864 40.362 215.432 38.8279C217 37.2825 218.813 36.1177 220.87 35.3336C222.926 34.5382 225.131 34.1404 227.483 34.1404C229.551 34.1404 231.472 34.4359 233.245 35.0268C235.029 35.6063 236.603 36.4359 237.966 37.5154C239.341 38.5836 240.449 39.8507 241.29 41.3166C242.131 42.7825 242.642 44.3904 242.824 46.1404H233.245ZM277.857 34.6177V69.5268H269.948L257.334 51.1859H257.129V69.5268H247.652V34.6177H255.698L268.107 52.8904H268.379V34.6177H277.857Z" fill="url(#paint0_linear_3_46)"/>
</g>
<g style="mix-blend-mode:screen">
<path d="M50.8744 92.3692C63.1203 87.2968 68.9355 73.2576 63.8631 61.0117C58.7907 48.7658 44.7515 42.9506 32.5056 48.023C20.2597 53.0954 14.4445 67.1346 19.5169 79.3805C24.5893 91.6264 38.6285 97.4416 50.8744 92.3692Z" fill="#EC4899"/>
</g>
<g style="mix-blend-mode:screen">
<path d="M83.2101 78.9753C95.456 73.9029 101.271 59.8637 96.1988 47.6178C91.1264 35.3719 77.0872 29.5567 64.8413 34.6291C52.5954 39.7015 46.7802 53.7407 51.8526 65.9866C56.925 78.2325 70.9642 84.0477 83.2101 78.9753Z" fill="#F87171"/>
</g>
<g style="mix-blend-mode:screen">
<path d="M58.0956 60.1535C70.3415 55.0811 76.1567 41.0419 71.0843 28.796C66.0119 16.5501 51.9727 10.7349 39.7268 15.8073C27.4809 20.8797 21.6657 34.9189 26.7381 47.1648C31.8105 59.4107 45.8497 65.2259 58.0956 60.1535Z" fill="#4F46E5"/>
</g>
<defs>
<linearGradient id="paint0_linear_3_46" x1="102.803" y1="23.5268" x2="280.259" y2="64.7061" gradientUnits="userSpaceOnUse">
<stop stop-color="#FFBEFB"/>
<stop offset="1" stop-color="#F87171"/>
</linearGradient>
</defs>
</svg>
