<svg width="481" height="347" viewBox="0 0 481 347" fill="none" xmlns="http://www.w3.org/2000/svg">
<g clip-path="url(#clip0_4_64)">
<path d="M279.868 61.354C288.864 61.354 296.157 54.1334 296.157 45.2264C296.157 36.3194 288.864 29.0988 279.868 29.0988C270.872 29.0988 263.58 36.3194 263.58 45.2264C263.58 54.1334 270.872 61.354 279.868 61.354Z" fill="#F2F2F2"/>
<path d="M406.226 300.706C430.437 282.447 442.001 251.765 434.762 222.497C434.582 221.769 434.392 221.044 434.192 220.32C429.393 202.946 417.518 186.434 400.212 180.883C385.681 176.222 369.82 179.806 354.66 177.953C324.901 174.314 301.829 150.474 285.596 125.513C269.362 100.552 256.886 72.6115 235.314 51.9901C199.758 17.9991 141.756 10.6808 97.6706 32.8064C53.5855 54.9321 25.5037 104.02 26.7013 152.942C27.899 201.863 57.2321 248.636 99.8311 273.452C115.48 282.569 133.58 289.027 151.593 286.767C167.222 284.806 181.424 276.491 196.98 274.022C221.437 270.141 245.739 281.09 266.893 293.848C288.047 306.607 308.48 321.73 332.519 327.644C355.86 333.388 384.778 316.88 406.226 300.706Z" fill="#F2F2F2"/>
<path d="M371.44 33.8337C370.909 33.4834 370.372 33.1512 369.841 32.8129C354.499 23.0978 338.055 15.2054 320.848 9.29871L316.858 63.7927H291.566V1.34388C289.974 1.01771 288.369 0.709665 286.765 0.419739V63.7927H256.707C240.161 63.7927 224.292 57.2846 212.591 45.7C200.891 34.1155 194.318 18.4035 194.318 2.02044C192.707 2.36473 191.109 2.73312 189.51 3.12573V63.7927H165.029L161.228 11.8295C143.546 18.5439 126.759 27.3736 111.241 38.1222C110.972 38.3034 110.704 38.4906 110.442 38.6718C109.094 39.608 107.764 40.5624 106.44 41.5288V249.424H178.59L177.315 231.938L170.3 135.93H311.582L304.566 231.938L303.291 249.424H374.642V35.9357C373.581 35.2229 372.513 34.5223 371.44 33.8337ZM189.51 120.075H169.141L165.377 68.5523H189.51V120.075ZM286.765 120.075H252.553V119.054C252.553 118.563 252.455 118.077 252.266 117.624C252.076 117.171 251.797 116.759 251.447 116.412C251.096 116.065 250.68 115.791 250.222 115.603C249.763 115.416 249.272 115.32 248.777 115.321H233.904C233.409 115.321 232.918 115.417 232.461 115.605C232.003 115.792 231.588 116.067 231.238 116.414C230.887 116.76 230.61 117.172 230.42 117.625C230.231 118.078 230.134 118.563 230.134 119.054V120.075H194.318V68.5523H286.765V120.075ZM291.566 120.075V68.5523H316.511L312.747 120.075H291.566Z" fill="#3F3D56"/>
<path d="M0.269104 262.737C5.56877 268.954 11.301 274.797 17.4237 280.223L463.114 280.827C469.237 275.401 474.969 269.558 480.269 263.341L0.269104 262.737Z" fill="#3F3D56"/>
<path d="M302.506 206.745V258.511C302.507 259.171 302.772 259.804 303.243 260.27C303.714 260.737 304.353 260.999 305.019 260.999H382.498C383.165 260.999 383.804 260.737 384.275 260.27C384.746 259.804 385.011 259.171 385.011 258.511V206.745C385.01 206.086 384.744 205.454 384.273 204.989C383.802 204.523 383.164 204.261 382.498 204.26H305.019C304.354 204.261 303.715 204.523 303.244 204.989C302.773 205.454 302.508 206.086 302.506 206.745Z" fill="#3F3D56"/>
<path d="M304.324 207.389V257.873C304.325 258.225 304.466 258.563 304.718 258.812C304.97 259.062 305.311 259.202 305.667 259.202H381.853C382.209 259.202 382.551 259.062 382.802 258.812C383.054 258.563 383.196 258.225 383.196 257.873V207.389C383.196 207.036 383.055 206.698 382.803 206.448C382.551 206.198 382.21 206.058 381.853 206.057H305.667C305.311 206.058 304.969 206.198 304.717 206.448C304.466 206.698 304.324 207.036 304.324 207.389Z" fill="#6C63FF"/>
<path d="M300.886 268.607C301.028 268.783 301.208 268.925 301.414 269.023C301.619 269.12 301.844 269.17 302.072 269.169H385.034C385.26 269.169 385.484 269.118 385.689 269.021C385.894 268.925 386.074 268.784 386.217 268.609C386.36 268.435 386.462 268.231 386.515 268.013C386.569 267.794 386.572 267.567 386.526 267.347L385.238 261.291C385.185 261.044 385.07 260.814 384.904 260.622C384.738 260.43 384.526 260.283 384.287 260.193C384.115 260.126 383.931 260.091 383.746 260.092H303.354C303.169 260.091 302.985 260.126 302.813 260.193C302.574 260.283 302.362 260.43 302.196 260.622C302.03 260.814 301.915 261.044 301.862 261.291L300.574 267.347C300.528 267.567 300.533 267.794 300.587 268.012C300.64 268.23 300.743 268.433 300.886 268.607Z" fill="#2F2E41"/>
<path d="M380.899 262.7H382.859C383.023 262.7 383.156 262.568 383.156 262.405V261.477C383.156 261.314 383.023 261.183 382.859 261.183H380.899C380.735 261.183 380.601 261.314 380.601 261.477V262.405C380.601 262.568 380.735 262.7 380.899 262.7Z" fill="#3F3D56"/>
<path d="M375.789 262.7H377.748C377.913 262.7 378.046 262.568 378.046 262.405V261.477C378.046 261.314 377.913 261.183 377.748 261.183H375.789C375.624 261.183 375.491 261.314 375.491 261.477V262.405C375.491 262.568 375.624 262.7 375.789 262.7Z" fill="#3F3D56"/>
<path d="M370.678 262.7H372.638C372.802 262.7 372.936 262.568 372.936 262.405V261.477C372.936 261.314 372.802 261.183 372.638 261.183H370.678C370.514 261.183 370.381 261.314 370.381 261.477V262.405C370.381 262.568 370.514 262.7 370.678 262.7Z" fill="#3F3D56"/>
<path d="M365.568 262.7H367.528C367.692 262.7 367.825 262.568 367.825 262.405V261.477C367.825 261.314 367.692 261.183 367.528 261.183H365.568C365.404 261.183 365.27 261.314 365.27 261.477V262.405C365.27 262.568 365.404 262.7 365.568 262.7Z" fill="#3F3D56"/>
<path d="M360.458 262.7H362.417C362.582 262.7 362.715 262.568 362.715 262.405V261.477C362.715 261.314 362.582 261.183 362.417 261.183H360.458C360.293 261.183 360.16 261.314 360.16 261.477V262.405C360.16 262.568 360.293 262.7 360.458 262.7Z" fill="#3F3D56"/>
<path d="M355.347 262.7H357.307C357.471 262.7 357.605 262.568 357.605 262.405V261.477C357.605 261.314 357.471 261.183 357.307 261.183H355.347C355.183 261.183 355.049 261.314 355.049 261.477V262.405C355.049 262.568 355.183 262.7 355.347 262.7Z" fill="#3F3D56"/>
<path d="M350.237 262.7H352.196C352.361 262.7 352.494 262.568 352.494 262.405V261.477C352.494 261.314 352.361 261.183 352.196 261.183H350.237C350.072 261.183 349.939 261.314 349.939 261.477V262.405C349.939 262.568 350.072 262.7 350.237 262.7Z" fill="#3F3D56"/>
<path d="M345.127 262.7H347.086C347.251 262.7 347.384 262.568 347.384 262.405V261.477C347.384 261.314 347.251 261.183 347.086 261.183H345.127C344.962 261.183 344.829 261.314 344.829 261.477V262.405C344.829 262.568 344.962 262.7 345.127 262.7Z" fill="#3F3D56"/>
<path d="M340.016 262.7H341.976C342.14 262.7 342.273 262.568 342.273 262.405V261.477C342.273 261.314 342.14 261.183 341.976 261.183H340.016C339.852 261.183 339.718 261.314 339.718 261.477V262.405C339.718 262.568 339.852 262.7 340.016 262.7Z" fill="#3F3D56"/>
<path d="M334.906 262.7H336.865C337.03 262.7 337.163 262.568 337.163 262.405V261.477C337.163 261.314 337.03 261.183 336.865 261.183H334.906C334.741 261.183 334.608 261.314 334.608 261.477V262.405C334.608 262.568 334.741 262.7 334.906 262.7Z" fill="#3F3D56"/>
<path d="M329.795 262.7H331.755C331.919 262.7 332.053 262.568 332.053 262.405V261.477C332.053 261.314 331.919 261.183 331.755 261.183H329.795C329.631 261.183 329.498 261.314 329.498 261.477V262.405C329.498 262.568 329.631 262.7 329.795 262.7Z" fill="#3F3D56"/>
<path d="M324.685 262.7H326.645C326.809 262.7 326.942 262.568 326.942 262.405V261.477C326.942 261.314 326.809 261.183 326.645 261.183H324.685C324.521 261.183 324.387 261.314 324.387 261.477V262.405C324.387 262.568 324.521 262.7 324.685 262.7Z" fill="#3F3D56"/>
<path d="M319.575 262.7H321.534C321.699 262.7 321.832 262.568 321.832 262.405V261.477C321.832 261.314 321.699 261.183 321.534 261.183H319.575C319.41 261.183 319.277 261.314 319.277 261.477V262.405C319.277 262.568 319.41 262.7 319.575 262.7Z" fill="#3F3D56"/>
<path d="M314.464 262.7H316.424C316.588 262.7 316.722 262.568 316.722 262.405V261.477C316.722 261.314 316.588 261.183 316.424 261.183H314.464C314.3 261.183 314.166 261.314 314.166 261.477V262.405C314.166 262.568 314.3 262.7 314.464 262.7Z" fill="#3F3D56"/>
<path d="M309.354 262.7H311.313C311.478 262.7 311.611 262.568 311.611 262.405V261.477C311.611 261.314 311.478 261.183 311.313 261.183H309.354C309.189 261.183 309.056 261.314 309.056 261.477V262.405C309.056 262.568 309.189 262.7 309.354 262.7Z" fill="#3F3D56"/>
<path d="M304.243 262.7H306.203C306.367 262.7 306.501 262.568 306.501 262.405V261.477C306.501 261.314 306.367 261.183 306.203 261.183H304.243C304.079 261.183 303.946 261.314 303.946 261.477V262.405C303.946 262.568 304.079 262.7 304.243 262.7Z" fill="#3F3D56"/>
<path d="M380.96 265.23H382.919C383.084 265.23 383.217 265.098 383.217 264.935V264.007C383.217 263.844 383.084 263.712 382.919 263.712H380.96C380.795 263.712 380.662 263.844 380.662 264.007V264.935C380.662 265.098 380.795 265.23 380.96 265.23Z" fill="#3F3D56"/>
<path d="M375.849 265.23H377.809C377.973 265.23 378.107 265.098 378.107 264.935V264.007C378.107 263.844 377.973 263.712 377.809 263.712H375.849C375.685 263.712 375.551 263.844 375.551 264.007V264.935C375.551 265.098 375.685 265.23 375.849 265.23Z" fill="#3F3D56"/>
<path d="M370.739 265.23H372.698C372.863 265.23 372.996 265.098 372.996 264.935V264.007C372.996 263.844 372.863 263.712 372.698 263.712H370.739C370.574 263.712 370.441 263.844 370.441 264.007V264.935C370.441 265.098 370.574 265.23 370.739 265.23Z" fill="#3F3D56"/>
<path d="M365.628 265.23H367.588C367.752 265.23 367.886 265.098 367.886 264.935V264.007C367.886 263.844 367.752 263.712 367.588 263.712H365.628C365.464 263.712 365.331 263.844 365.331 264.007V264.935C365.331 265.098 365.464 265.23 365.628 265.23Z" fill="#3F3D56"/>
<path d="M360.518 265.23H362.478C362.642 265.23 362.775 265.098 362.775 264.935V264.007C362.775 263.844 362.642 263.712 362.478 263.712H360.518C360.354 263.712 360.22 263.844 360.22 264.007V264.935C360.22 265.098 360.354 265.23 360.518 265.23Z" fill="#3F3D56"/>
<path d="M355.408 265.23H357.367C357.532 265.23 357.665 265.098 357.665 264.935V264.007C357.665 263.844 357.532 263.712 357.367 263.712H355.408C355.243 263.712 355.11 263.844 355.11 264.007V264.935C355.11 265.098 355.243 265.23 355.408 265.23Z" fill="#3F3D56"/>
<path d="M350.297 265.23H352.257C352.421 265.23 352.555 265.098 352.555 264.935V264.007C352.555 263.844 352.421 263.712 352.257 263.712H350.297C350.133 263.712 349.999 263.844 349.999 264.007V264.935C349.999 265.098 350.133 265.23 350.297 265.23Z" fill="#3F3D56"/>
<path d="M345.187 265.23H347.146C347.311 265.23 347.444 265.098 347.444 264.935V264.007C347.444 263.844 347.311 263.712 347.146 263.712H345.187C345.022 263.712 344.889 263.844 344.889 264.007V264.935C344.889 265.098 345.022 265.23 345.187 265.23Z" fill="#3F3D56"/>
<path d="M340.077 265.23H342.036C342.201 265.23 342.334 265.098 342.334 264.935V264.007C342.334 263.844 342.201 263.712 342.036 263.712H340.077C339.912 263.712 339.779 263.844 339.779 264.007V264.935C339.779 265.098 339.912 265.23 340.077 265.23Z" fill="#3F3D56"/>
<path d="M334.966 265.23H336.926C337.09 265.23 337.224 265.098 337.224 264.935V264.007C337.224 263.844 337.09 263.712 336.926 263.712H334.966C334.802 263.712 334.668 263.844 334.668 264.007V264.935C334.668 265.098 334.802 265.23 334.966 265.23Z" fill="#3F3D56"/>
<path d="M329.856 265.23H331.815C331.98 265.23 332.113 265.098 332.113 264.935V264.007C332.113 263.844 331.98 263.712 331.815 263.712H329.856C329.691 263.712 329.558 263.844 329.558 264.007V264.935C329.558 265.098 329.691 265.23 329.856 265.23Z" fill="#3F3D56"/>
<path d="M324.745 265.23H326.705C326.869 265.23 327.003 265.098 327.003 264.935V264.007C327.003 263.844 326.869 263.712 326.705 263.712H324.745C324.581 263.712 324.448 263.844 324.448 264.007V264.935C324.448 265.098 324.581 265.23 324.745 265.23Z" fill="#3F3D56"/>
<path d="M319.635 265.23H321.595C321.759 265.23 321.892 265.098 321.892 264.935V264.007C321.892 263.844 321.759 263.712 321.595 263.712H319.635C319.471 263.712 319.337 263.844 319.337 264.007V264.935C319.337 265.098 319.471 265.23 319.635 265.23Z" fill="#3F3D56"/>
<path d="M314.525 265.23H316.484C316.649 265.23 316.782 265.098 316.782 264.935V264.007C316.782 263.844 316.649 263.712 316.484 263.712H314.525C314.36 263.712 314.227 263.844 314.227 264.007V264.935C314.227 265.098 314.36 265.23 314.525 265.23Z" fill="#3F3D56"/>
<path d="M309.414 265.23H311.374C311.538 265.23 311.672 265.098 311.672 264.935V264.007C311.672 263.844 311.538 263.712 311.374 263.712H309.414C309.25 263.712 309.116 263.844 309.116 264.007V264.935C309.116 265.098 309.25 265.23 309.414 265.23Z" fill="#3F3D56"/>
<path d="M304.304 265.23H306.263C306.428 265.23 306.561 265.098 306.561 264.935V264.007C306.561 263.844 306.428 263.712 306.263 263.712H304.304C304.139 263.712 304.006 263.844 304.006 264.007V264.935C304.006 265.098 304.139 265.23 304.304 265.23Z" fill="#3F3D56"/>
<path d="M338.543 268.266H358.389C358.554 268.266 358.687 268.134 358.687 267.971V267.043C358.687 266.88 358.554 266.748 358.389 266.748H338.543C338.379 266.748 338.246 266.88 338.246 267.043V267.971C338.246 268.134 338.379 268.266 338.543 268.266Z" fill="#3F3D56"/>
<path d="M317.517 217.101H315.782C315.257 217.101 314.83 217.523 314.83 218.044C314.83 218.565 315.257 218.987 315.782 218.987H317.517C318.043 218.987 318.47 218.565 318.47 218.044C318.47 217.523 318.043 217.101 317.517 217.101Z" fill="white"/>
<path d="M337.358 217.101H335.623C335.097 217.101 334.671 217.523 334.671 218.044C334.671 218.565 335.097 218.987 335.623 218.987H337.358C337.884 218.987 338.31 218.565 338.31 218.044C338.31 217.523 337.884 217.101 337.358 217.101Z" fill="white"/>
<path d="M342.98 217.101H341.245C340.719 217.101 340.292 217.523 340.292 218.044C340.292 218.565 340.719 218.987 341.245 218.987H342.98C343.505 218.987 343.932 218.565 343.932 218.044C343.932 217.523 343.505 217.101 342.98 217.101Z" fill="white"/>
<path d="M331.961 216.944H321.179C320.653 216.944 320.227 217.366 320.227 217.887C320.227 218.408 320.653 218.83 321.179 218.83H331.961C332.487 218.83 332.914 218.408 332.914 217.887C332.914 217.366 332.487 216.944 331.961 216.944Z" fill="white"/>
<path d="M358.416 216.944H347.634C347.108 216.944 346.681 217.366 346.681 217.887C346.681 218.408 347.108 218.83 347.634 218.83H358.416C358.941 218.83 359.368 218.408 359.368 217.887C359.368 217.366 358.941 216.944 358.416 216.944Z" fill="white"/>
<path d="M322.808 221.358H321.073C320.547 221.358 320.121 221.78 320.121 222.3C320.121 222.821 320.547 223.243 321.073 223.243H322.808C323.334 223.243 323.76 222.821 323.76 222.3C323.76 221.78 323.334 221.358 322.808 221.358Z" fill="white"/>
<path d="M342.649 221.358H340.914C340.388 221.358 339.962 221.78 339.962 222.3C339.962 222.821 340.388 223.243 340.914 223.243H342.649C343.175 223.243 343.601 222.821 343.601 222.3C343.601 221.78 343.175 221.358 342.649 221.358Z" fill="white"/>
<path d="M348.27 221.358H346.536C346.01 221.358 345.583 221.78 345.583 222.3C345.583 222.821 346.01 223.243 346.536 223.243H348.27C348.796 223.243 349.223 222.821 349.223 222.3C349.223 221.78 348.796 221.358 348.27 221.358Z" fill="white"/>
<path d="M337.252 221.2H326.47C325.944 221.2 325.518 221.622 325.518 222.143C325.518 222.664 325.944 223.086 326.47 223.086H337.252C337.778 223.086 338.204 222.664 338.204 222.143C338.204 221.622 337.778 221.2 337.252 221.2Z" fill="white"/>
<path d="M363.706 221.2H352.924C352.398 221.2 351.972 221.622 351.972 222.143C351.972 222.664 352.398 223.086 352.924 223.086H363.706C364.232 223.086 364.659 222.664 364.659 222.143C364.659 221.622 364.232 221.2 363.706 221.2Z" fill="white"/>
<path d="M328.099 225.614H326.364C325.838 225.614 325.412 226.036 325.412 226.557C325.412 227.077 325.838 227.499 326.364 227.499H328.099C328.625 227.499 329.051 227.077 329.051 226.557C329.051 226.036 328.625 225.614 328.099 225.614Z" fill="white"/>
<path d="M347.94 225.614H346.205C345.679 225.614 345.253 226.036 345.253 226.557C345.253 227.077 345.679 227.499 346.205 227.499H347.94C348.466 227.499 348.892 227.077 348.892 226.557C348.892 226.036 348.466 225.614 347.94 225.614Z" fill="white"/>
<path d="M353.561 225.614H351.826C351.3 225.614 350.874 226.036 350.874 226.557C350.874 227.077 351.3 227.499 351.826 227.499H353.561C354.087 227.499 354.513 227.077 354.513 226.557C354.513 226.036 354.087 225.614 353.561 225.614Z" fill="white"/>
<path d="M342.543 225.457H331.761C331.235 225.457 330.809 225.879 330.809 226.399C330.809 226.92 331.235 227.342 331.761 227.342H342.543C343.069 227.342 343.495 226.92 343.495 226.399C343.495 225.879 343.069 225.457 342.543 225.457Z" fill="white"/>
<path d="M368.997 225.457H358.215C357.689 225.457 357.263 225.879 357.263 226.399C357.263 226.92 357.689 227.342 358.215 227.342H368.997C369.523 227.342 369.95 226.92 369.95 226.399C369.95 225.879 369.523 225.457 368.997 225.457Z" fill="white"/>
<path d="M333.39 229.87H331.655C331.129 229.87 330.703 230.292 330.703 230.813C330.703 231.334 331.129 231.756 331.655 231.756H333.39C333.916 231.756 334.342 231.334 334.342 230.813C334.342 230.292 333.916 229.87 333.39 229.87Z" fill="white"/>
<path d="M353.231 229.87H351.496C350.97 229.87 350.543 230.292 350.543 230.813C350.543 231.334 350.97 231.756 351.496 231.756H353.231C353.757 231.756 354.183 231.334 354.183 230.813C354.183 230.292 353.757 229.87 353.231 229.87Z" fill="white"/>
<path d="M358.852 229.87H357.117C356.591 229.87 356.165 230.292 356.165 230.813C356.165 231.334 356.591 231.756 357.117 231.756H358.852C359.378 231.756 359.804 231.334 359.804 230.813C359.804 230.292 359.378 229.87 358.852 229.87Z" fill="white"/>
<path d="M347.834 229.713H337.052C336.526 229.713 336.099 230.135 336.099 230.656C336.099 231.176 336.526 231.598 337.052 231.598H347.834C348.36 231.598 348.786 231.176 348.786 230.656C348.786 230.135 348.36 229.713 347.834 229.713Z" fill="white"/>
<path d="M337.358 246.795H335.623C335.097 246.795 334.671 247.217 334.671 247.738C334.671 248.258 335.097 248.68 335.623 248.68H337.358C337.884 248.68 338.31 248.258 338.31 247.738C338.31 247.217 337.884 246.795 337.358 246.795Z" fill="white"/>
<path d="M342.98 246.795H341.245C340.719 246.795 340.292 247.217 340.292 247.738C340.292 248.258 340.719 248.68 341.245 248.68H342.98C343.505 248.68 343.932 248.258 343.932 247.738C343.932 247.217 343.505 246.795 342.98 246.795Z" fill="white"/>
<path d="M358.416 246.952H347.634C347.108 246.952 346.681 247.374 346.681 247.895C346.681 248.415 347.108 248.838 347.634 248.838H358.416C358.941 248.838 359.368 248.415 359.368 247.895C359.368 247.374 358.941 246.952 358.416 246.952Z" fill="white"/>
<path d="M317.517 246.795H315.782C315.257 246.795 314.83 247.217 314.83 247.738C314.83 248.258 315.257 248.68 315.782 248.68H317.517C318.043 248.68 318.47 248.258 318.47 247.738C318.47 247.217 318.043 246.795 317.517 246.795Z" fill="white"/>
<path d="M331.961 246.952H321.179C320.653 246.952 320.227 247.374 320.227 247.895C320.227 248.415 320.653 248.838 321.179 248.838H331.961C332.487 248.838 332.914 248.415 332.914 247.895C332.914 247.374 332.487 246.952 331.961 246.952Z" fill="white"/>
<path d="M322.808 242.539H321.073C320.547 242.539 320.121 242.961 320.121 243.481C320.121 244.002 320.547 244.424 321.073 244.424H322.808C323.334 244.424 323.76 244.002 323.76 243.481C323.76 242.961 323.334 242.539 322.808 242.539Z" fill="white"/>
<path d="M342.649 242.539H340.914C340.388 242.539 339.962 242.961 339.962 243.481C339.962 244.002 340.388 244.424 340.914 244.424H342.649C343.175 244.424 343.601 244.002 343.601 243.481C343.601 242.961 343.175 242.539 342.649 242.539Z" fill="white"/>
<path d="M348.27 242.539H346.536C346.01 242.539 345.583 242.961 345.583 243.481C345.583 244.002 346.01 244.424 346.536 244.424H348.27C348.796 244.424 349.223 244.002 349.223 243.481C349.223 242.961 348.796 242.539 348.27 242.539Z" fill="white"/>
<path d="M337.252 242.696H326.47C325.944 242.696 325.518 243.118 325.518 243.639C325.518 244.159 325.944 244.581 326.47 244.581H337.252C337.778 244.581 338.204 244.159 338.204 243.639C338.204 243.118 337.778 242.696 337.252 242.696Z" fill="white"/>
<path d="M328.099 238.282H326.364C325.838 238.282 325.412 238.704 325.412 239.225C325.412 239.746 325.838 240.168 326.364 240.168H328.099C328.625 240.168 329.051 239.746 329.051 239.225C329.051 238.704 328.625 238.282 328.099 238.282Z" fill="white"/>
<path d="M347.94 238.282H346.205C345.679 238.282 345.253 238.704 345.253 239.225C345.253 239.746 345.679 240.168 346.205 240.168H347.94C348.466 240.168 348.892 239.746 348.892 239.225C348.892 238.704 348.466 238.282 347.94 238.282Z" fill="white"/>
<path d="M353.561 238.282H351.826C351.3 238.282 350.874 238.704 350.874 239.225C350.874 239.746 351.3 240.168 351.826 240.168H353.561C354.087 240.168 354.513 239.746 354.513 239.225C354.513 238.704 354.087 238.282 353.561 238.282Z" fill="white"/>
<path d="M342.543 238.439H331.761C331.235 238.439 330.809 238.862 330.809 239.382C330.809 239.903 331.235 240.325 331.761 240.325H342.543C343.069 240.325 343.495 239.903 343.495 239.382C343.495 238.862 343.069 238.439 342.543 238.439Z" fill="white"/>
<path d="M333.39 234.026H331.655C331.129 234.026 330.703 234.448 330.703 234.969C330.703 235.489 331.129 235.912 331.655 235.912H333.39C333.916 235.912 334.342 235.489 334.342 234.969C334.342 234.448 333.916 234.026 333.39 234.026Z" fill="white"/>
<path d="M353.231 234.026H351.496C350.97 234.026 350.543 234.448 350.543 234.969C350.543 235.489 350.97 235.912 351.496 235.912H353.231C353.757 235.912 354.183 235.489 354.183 234.969C354.183 234.448 353.757 234.026 353.231 234.026Z" fill="white"/>
<path d="M358.852 234.026H357.117C356.591 234.026 356.165 234.448 356.165 234.969C356.165 235.489 356.591 235.912 357.117 235.912H358.852C359.378 235.912 359.804 235.489 359.804 234.969C359.804 234.448 359.378 234.026 358.852 234.026Z" fill="white"/>
<path d="M347.834 234.183H337.052C336.526 234.183 336.099 234.605 336.099 235.126C336.099 235.647 336.526 236.069 337.052 236.069H347.834C348.36 236.069 348.786 235.647 348.786 235.126C348.786 234.605 348.36 234.183 347.834 234.183Z" fill="white"/>
<path d="M308.294 296.677L300.15 283.931L325.713 263.755L336.264 252.182C337.634 250.678 339.38 249.557 341.325 248.93C343.271 248.304 345.348 248.194 347.35 248.611C349.352 249.029 351.208 249.959 352.733 251.309C354.258 252.66 355.398 254.383 356.04 256.306C356.991 259.156 356.787 262.26 355.47 264.964C354.153 267.668 351.827 269.759 348.982 270.797L332.298 276.882L308.294 296.677Z" fill="#FFB6B6"/>
<path d="M117.21 204.262V266.21H161.042V204.262C161.043 203.817 160.899 203.383 160.632 203.024C160.365 202.665 159.989 202.401 159.559 202.269C159.357 202.203 159.144 202.17 158.931 202.172H119.327C119.049 202.172 118.774 202.226 118.517 202.33C118.261 202.435 118.027 202.589 117.831 202.783C117.634 202.977 117.478 203.208 117.372 203.461C117.265 203.715 117.21 203.987 117.21 204.262ZM134.316 225.548C134.327 224.326 134.825 223.159 135.701 222.299C136.577 221.44 137.761 220.958 138.995 220.958C140.228 220.958 141.412 221.44 142.288 222.299C143.164 223.159 143.662 224.326 143.674 225.548V232.735C143.667 233.96 143.172 235.132 142.295 235.996C141.418 236.86 140.231 237.345 138.995 237.345C137.758 237.345 136.571 236.86 135.694 235.996C134.818 235.132 134.322 233.96 134.316 232.735V225.548Z" fill="#2F2E41"/>
<path d="M117.076 264.229V270.202C117.076 270.512 117.201 270.808 117.421 271.028C117.641 271.247 117.94 271.371 118.253 271.374H159.999C160.312 271.373 160.611 271.248 160.832 271.029C161.052 270.809 161.176 270.512 161.176 270.202V264.229H117.076Z" fill="#3F3D56"/>
<path d="M48.2557 110.93V224.038C48.2568 225.479 48.8357 226.861 49.8651 227.88C50.8945 228.899 52.2903 229.473 53.7461 229.474H223.035C224.491 229.473 225.887 228.899 226.916 227.88C227.946 226.861 228.524 225.479 228.526 224.038V110.93C228.522 109.49 227.942 108.11 226.913 107.092C225.884 106.075 224.49 105.502 223.035 105.5H53.7461C52.2916 105.502 50.8971 106.075 49.868 107.092C48.8389 108.11 48.2591 109.49 48.2557 110.93Z" fill="#3F3D56"/>
<path d="M52.2271 112.338V222.642C52.2285 223.412 52.538 224.151 53.088 224.695C53.638 225.24 54.3836 225.546 55.1615 225.548H221.626C222.404 225.546 223.149 225.24 223.699 224.695C224.249 224.151 224.559 223.412 224.56 222.642V112.338C224.56 111.567 224.251 110.827 223.701 110.281C223.151 109.735 222.405 109.428 221.626 109.426H55.1615C54.3827 109.428 53.6364 109.735 53.0863 110.281C52.5362 110.827 52.2272 111.567 52.2271 112.338Z" fill="white"/>
<path d="M83.1201 270.969C83.2895 271.18 83.5049 271.349 83.75 271.465C83.9951 271.582 84.2636 271.641 84.5354 271.64H183.571C183.842 271.639 184.109 271.579 184.354 271.464C184.598 271.348 184.813 271.18 184.984 270.972C185.155 270.764 185.276 270.521 185.34 270.26C185.404 269.999 185.408 269.728 185.352 269.465L183.815 262.235C183.751 261.94 183.614 261.666 183.416 261.437C183.218 261.208 182.965 261.032 182.68 260.925C182.474 260.845 182.255 260.804 182.034 260.804H86.0666C85.8453 260.804 85.626 260.845 85.42 260.925C85.1354 261.032 84.8825 261.208 84.6843 261.437C84.4862 261.666 84.349 261.94 84.2853 262.235L82.7479 269.465C82.6932 269.728 82.6983 269.999 82.7626 270.259C82.827 270.519 82.9491 270.762 83.1201 270.969Z" fill="#2F2E41"/>
<path d="M216.224 124.621H60.4635C60.3016 124.618 60.1475 124.551 60.0343 124.437C59.9211 124.322 59.8577 124.168 59.8577 124.008C59.8577 123.848 59.9211 123.694 60.0343 123.579C60.1475 123.464 60.3016 123.398 60.4635 123.395H216.224C216.386 123.398 216.54 123.464 216.653 123.579C216.766 123.694 216.829 123.848 216.829 124.008C216.829 124.168 216.766 124.322 216.653 124.437C216.54 124.551 216.386 124.618 216.224 124.621Z" fill="#3F3D56"/>
<path d="M71.0663 120.263C73.0711 120.263 74.6963 118.618 74.6963 116.589C74.6963 114.56 73.0711 112.915 71.0663 112.915C69.0614 112.915 67.4362 114.56 67.4362 116.589C67.4362 118.618 69.0614 120.263 71.0663 120.263Z" fill="#3F3D56"/>
<path d="M83.6065 120.263C85.6113 120.263 87.2366 118.618 87.2366 116.589C87.2366 114.56 85.6113 112.915 83.6065 112.915C81.6017 112.915 79.9764 114.56 79.9764 116.589C79.9764 118.618 81.6017 120.263 83.6065 120.263Z" fill="#3F3D56"/>
<path d="M96.1467 120.263C98.1516 120.263 99.7768 118.618 99.7768 116.589C99.7768 114.56 98.1516 112.915 96.1467 112.915C94.1419 112.915 92.5167 114.56 92.5167 116.589C92.5167 118.618 94.1419 120.263 96.1467 120.263Z" fill="#3F3D56"/>
<path d="M208.672 113.824H199.766C199.59 113.828 199.422 113.9 199.299 114.024C199.176 114.149 199.107 114.317 199.107 114.491C199.107 114.665 199.176 114.833 199.299 114.957C199.422 115.082 199.59 115.154 199.766 115.158H208.672C208.85 115.156 209.019 115.084 209.143 114.96C209.267 114.835 209.337 114.666 209.337 114.491C209.337 114.316 209.267 114.147 209.143 114.022C209.019 113.897 208.85 113.826 208.672 113.824Z" fill="#3F3D56"/>
<path d="M208.672 116.33H199.766C199.589 116.334 199.422 116.406 199.299 116.531C199.175 116.656 199.106 116.823 199.106 116.998C199.106 117.172 199.175 117.34 199.299 117.464C199.422 117.589 199.589 117.661 199.766 117.665H208.672C208.85 117.663 209.019 117.591 209.144 117.467C209.269 117.342 209.338 117.173 209.338 116.998C209.338 116.822 209.269 116.653 209.144 116.528C209.019 116.404 208.85 116.332 208.672 116.33Z" fill="#3F3D56"/>
<path d="M208.672 118.837H199.766C199.59 118.841 199.422 118.913 199.299 119.038C199.176 119.162 199.107 119.33 199.107 119.504C199.107 119.679 199.176 119.846 199.299 119.971C199.422 120.095 199.59 120.167 199.766 120.172H208.672C208.85 120.169 209.019 120.098 209.143 119.973C209.267 119.848 209.337 119.68 209.337 119.504C209.337 119.329 209.267 119.16 209.143 119.036C209.019 118.911 208.85 118.839 208.672 118.837Z" fill="#3F3D56"/>
<path d="M423.398 266.85C423.666 267.625 424.176 268.296 424.854 268.766C425.532 269.236 426.342 269.481 427.17 269.466L443.331 269.054C444.164 269.038 444.97 268.756 445.628 268.249C446.285 267.742 446.76 267.038 446.98 266.242L449.267 242.028C450.078 242.392 450.961 242.572 451.852 242.554C452.626 242.535 453.388 242.365 454.095 242.054C454.803 241.743 455.442 241.298 455.975 240.742C456.508 240.187 456.926 239.533 457.204 238.818C457.482 238.103 457.616 237.34 457.596 236.574C457.577 235.808 457.405 235.053 457.091 234.353C456.777 233.652 456.327 233.02 455.766 232.492C455.205 231.964 454.544 231.55 453.822 231.275C453.1 231 452.33 230.868 451.556 230.887C451.2 230.886 450.845 230.922 450.497 230.996C450.118 230.591 449.658 230.268 449.146 230.049C448.634 229.83 448.081 229.72 447.524 229.726L422.664 230.361C422.457 230.369 422.252 230.394 422.05 230.437C421.505 230.537 420.988 230.752 420.534 231.068C420.08 231.383 419.699 231.79 419.417 232.263C419.136 232.736 418.96 233.264 418.901 233.81C418.842 234.356 418.903 234.908 419.078 235.429L423.398 266.85ZM449.736 240.384L451.363 234.614C451.548 233.948 451.552 233.245 451.375 232.576C451.454 232.576 451.524 232.539 451.603 232.539C452.719 232.516 453.798 232.932 454.605 233.696C455.411 234.46 455.879 235.509 455.905 236.614C455.931 237.719 455.513 238.789 454.744 239.589C453.975 240.39 452.916 240.856 451.8 240.884C451.079 240.907 450.365 240.734 449.736 240.384Z" fill="#2F2E41"/>
<path d="M422.051 230.437C422.58 233.435 428.535 235.542 435.695 235.176C442.279 234.875 447.662 232.587 448.649 229.874C448.284 229.767 447.904 229.717 447.524 229.726L422.664 230.361C422.458 230.369 422.252 230.394 422.051 230.437Z" fill="#3F3D56"/>
<path d="M437.007 253.544C437.04 253.536 437.071 253.522 437.099 253.504L440.609 251.23C440.651 251.202 440.686 251.165 440.71 251.121C440.734 251.077 440.747 251.027 440.747 250.977C440.747 250.927 440.734 250.878 440.71 250.834C440.686 250.79 440.651 250.752 440.609 250.725L436.961 248.359C436.928 248.338 436.89 248.322 436.851 248.315C436.811 248.307 436.771 248.308 436.731 248.316C436.692 248.324 436.655 248.339 436.621 248.362C436.588 248.384 436.56 248.412 436.538 248.446C436.516 248.479 436.501 248.516 436.493 248.555C436.486 248.594 436.486 248.634 436.494 248.673C436.503 248.712 436.519 248.749 436.541 248.782C436.564 248.815 436.593 248.843 436.627 248.864L439.885 250.977L436.765 252.999C436.705 253.038 436.66 253.097 436.64 253.165C436.619 253.234 436.624 253.307 436.653 253.373C436.682 253.438 436.733 253.491 436.798 253.523C436.863 253.554 436.937 253.562 437.007 253.544Z" fill="#6C63FF"/>
<path d="M431.464 253.797C431.523 253.782 431.576 253.751 431.616 253.706C431.657 253.661 431.683 253.605 431.691 253.546C431.699 253.486 431.689 253.425 431.663 253.371C431.636 253.317 431.593 253.272 431.541 253.243L428.305 251.406L431.432 249.107C431.464 249.084 431.492 249.054 431.512 249.02C431.533 248.986 431.546 248.948 431.552 248.909C431.558 248.87 431.556 248.83 431.546 248.791C431.536 248.753 431.519 248.717 431.495 248.685C431.471 248.653 431.441 248.626 431.407 248.606C431.373 248.586 431.335 248.572 431.295 248.566C431.255 248.561 431.215 248.563 431.176 248.572C431.137 248.582 431.101 248.599 431.069 248.623L427.568 251.197C427.527 251.227 427.495 251.266 427.473 251.312C427.452 251.357 427.442 251.407 427.445 251.457C427.448 251.507 427.464 251.556 427.49 251.598C427.517 251.641 427.554 251.676 427.598 251.701L431.237 253.766C431.306 253.805 431.387 253.816 431.464 253.797Z" fill="#6C63FF"/>
<path d="M436.658 255.538C436.687 255.531 436.716 255.519 436.741 255.503C436.776 255.483 436.806 255.456 436.829 255.424C436.853 255.392 436.87 255.355 436.879 255.317C436.889 255.278 436.891 255.238 436.885 255.199C436.878 255.16 436.864 255.122 436.844 255.088L431.868 246.989C431.826 246.921 431.758 246.872 431.68 246.853C431.601 246.835 431.518 246.847 431.449 246.889C431.38 246.931 431.331 246.998 431.312 247.076C431.292 247.153 431.305 247.235 431.347 247.304L436.322 255.403C436.356 255.458 436.407 255.501 436.468 255.525C436.528 255.549 436.595 255.554 436.658 255.538Z" fill="#6C63FF"/>
<path d="M156.954 157.963H129.996C128.896 157.963 128.004 158.845 128.004 159.934V162.542C128.004 163.631 128.896 164.513 129.996 164.513H156.954C158.054 164.513 158.946 163.631 158.946 162.542V159.934C158.946 158.845 158.054 157.963 156.954 157.963Z" fill="#6C63FF"/>
<path d="M172.668 171.064H114.282C113.182 171.064 112.29 171.947 112.29 173.036V175.644C112.29 176.733 113.182 177.615 114.282 177.615H172.668C173.768 177.615 174.66 176.733 174.66 175.644V173.036C174.66 171.947 173.768 171.064 172.668 171.064Z" fill="#E6E6E6"/>
<path d="M172.668 184.166H114.282C113.182 184.166 112.29 185.049 112.29 186.138V188.746C112.29 189.834 113.182 190.717 114.282 190.717H172.668C173.768 190.717 174.66 189.834 174.66 188.746V186.138C174.66 185.049 173.768 184.166 172.668 184.166Z" fill="#E6E6E6"/>
<path d="M177.618 228.039L177.75 228.453L177.757 228.466L181.738 240.449L186.317 254.257L194.932 280.206L195.016 284.237V284.251L195.656 316.677L193.881 321.073L195.879 328.28C195.879 328.28 194.96 317.386 190.033 323.642C187.242 327.198 183.978 330.836 181.299 334.247C185.203 335.811 189.17 337.225 193.199 338.491C194.069 338.767 194.946 339.028 195.823 339.29C196.011 339.345 196.199 339.401 196.387 339.456C209.744 343.367 223.552 345.564 237.474 345.995C238.198 346.015 238.908 346.029 239.597 346.043C239.84 346.05 240.077 346.057 240.314 346.057C241.093 346.064 241.866 346.07 242.645 346.07C244.218 346.07 245.784 346.047 247.342 346.002C258.88 345.68 270.351 344.144 281.561 341.419C281.485 336.837 281.276 331.483 280.977 325.764C280.837 322.96 277.713 319.921 277.525 316.986C277.393 314.781 280.197 312.707 280.051 310.468C279.104 296.68 277.921 301.973 277.045 292.209C276.954 291.252 276.871 290.335 276.794 289.46C276.23 283.19 275.841 279.269 275.841 279.269L279.585 255.904L285.465 219.22L285.013 218.482L284.505 218.234L253.487 203.034L251.803 198.762C251.313 197.531 250.461 196.474 249.359 195.726C248.256 194.978 246.953 194.574 245.617 194.566L225.184 194.483C224.124 194.478 223.078 194.724 222.132 195.2C221.187 195.676 220.37 196.368 219.749 197.219L214.216 204.805L177.618 228.039Z" fill="#3F3D56"/>
<path d="M199.644 274.432L195.016 284.237L191.856 290.935L186.421 319.109L183.7 321.969L181.369 311.846L156.968 317.21C156.168 312.807 156.754 317.359 156.26 312.529C156.399 312.391 156.545 312.253 156.691 312.115C157.081 311.757 157.408 311.42 157.401 311.096C157.123 294.435 157.958 266.081 164.931 248.903C166.023 246.099 167.463 243.439 169.218 240.986C169.357 240.8 169.489 240.614 169.621 240.428C172.837 235.97 174.869 231.581 177.75 228.46V228.453C177.768 228.438 177.784 228.422 177.799 228.404C177.809 228.399 177.819 228.392 177.826 228.384L197.619 217.993L198.468 241.613L199.073 258.591L199.644 274.432Z" fill="#3F3D56"/>
<path d="M271.01 277.217L276.791 289.463L278.809 293.728L284.242 321.9L286.955 324.753L289.291 314.632L290.389 314.409L310.191 310.349L315.962 328.497C317.263 326.351 317.775 323.827 317.413 321.35C317.05 318.873 315.835 316.596 313.973 314.904C313.578 314.551 313.25 314.207 313.259 313.882C313.588 294.286 312.377 258.504 301.444 243.777C297.972 239.103 295.889 234.448 292.857 231.196C292.848 231.186 292.848 231.177 292.839 231.177L285.462 219.219L285.012 218.485L284.505 218.234L271.01 277.217Z" fill="#3F3D56"/>
<path d="M235.991 188.726C251.003 188.726 263.173 176.676 263.173 161.812C263.173 146.948 251.003 134.898 235.991 134.898C220.978 134.898 208.808 146.948 208.808 161.812C208.808 176.676 220.978 188.726 235.991 188.726Z" fill="#FFB6B6"/>
<path d="M272.731 143.013C272.521 142.79 272.267 142.612 271.985 142.488C271.703 142.365 271.398 142.299 271.09 142.294L271.499 141.171C271.632 140.817 271.668 140.434 271.603 140.062C271.538 139.69 271.374 139.342 271.129 139.053C270.883 138.764 270.564 138.545 270.204 138.418C269.845 138.292 269.458 138.262 269.083 138.332L267.595 138.616L267.735 137.631C267.789 137.265 267.745 136.89 267.609 136.545C267.472 136.2 267.247 135.897 266.956 135.664C266.665 135.431 266.318 135.277 265.948 135.218C265.579 135.158 265.2 135.195 264.849 135.324C264.53 135.448 264.187 135.5 263.845 135.476C263.503 135.452 263.171 135.353 262.873 135.185C262.574 135.022 262.314 134.797 262.111 134.525C261.909 134.253 261.769 133.94 261.702 133.609L261.183 131.132L261.128 130.999C258.602 126.832 253.746 123.799 247.805 122.688C242.515 121.691 237.092 122.199 231.864 122.676C229.79 122.869 227.447 123.087 225.495 124.271C223.836 125.285 222.433 127.315 222.719 129.362C217.564 127.798 212.037 130.921 209.298 134.859C206.053 139.546 205.522 145.417 205.437 150.007C205.205 160.868 207.468 169.753 212.147 176.421C212.489 176.904 212.574 177.913 213.251 178.251L213.111 178.028C213.867 178.402 214.636 179.006 214.349 179.652C213.526 181.513 218.998 185.626 222.854 186.985C229.887 189.468 239.239 189.256 245.816 188.362L246.048 186.822C248.421 186.502 250.092 185.892 250.562 184.937C251.392 184.237 252.099 183.609 252.715 183.029L252.722 183.023C252.734 183.011 252.758 182.993 252.77 182.981C255.741 180.16 256.431 178.553 256.742 176.107C257.041 173.709 256.51 171.275 255.967 169.082C267.399 170.834 251.465 157.026 262.116 154.356C262.239 154.319 262.363 154.289 262.488 154.266C262.8 154.193 263.111 154.121 263.41 154.036C264.851 153.649 266.23 153.066 267.509 152.303C270.486 150.509 271.468 148.129 273.006 145.447C273.228 145.065 273.321 144.623 273.271 144.186C273.222 143.748 273.033 143.337 272.731 143.013Z" fill="#2F2E41"/>
<path d="M332.132 279.133C332.126 280.19 332.114 281.67 332.065 283.5C332.059 283.754 332.053 284.014 332.046 284.279C331.967 287.644 331.888 290.464 331.76 293.599C331.754 293.817 331.748 294.028 331.735 294.246C331.565 298.619 331.296 303.71 330.832 311.774C329.972 326.669 328.472 313.822 326.965 319.046C326.892 319.306 326.812 319.614 326.739 319.977C326.511 321.291 326.126 322.575 325.592 323.8C324.793 324.271 323.969 324.724 323.158 325.177C320.846 326.452 318.497 327.678 316.13 328.843C314.8 329.496 313.464 330.136 312.122 330.752C311.909 330.849 311.701 330.945 311.494 331.036C304.621 334.183 297.538 336.86 290.295 339.045C288.879 339.468 287.47 339.879 286.043 340.259C284.554 340.67 283.066 341.057 281.559 341.419C270.349 344.144 258.879 345.68 247.341 346.003C245.785 346.052 244.218 346.07 242.644 346.07C241.863 346.07 241.094 346.064 240.313 346.058C240.075 346.058 239.837 346.052 239.599 346.046C238.91 346.028 238.196 346.015 237.476 345.997C223.554 345.567 209.746 343.369 196.39 339.456L195.822 339.293C194.944 339.027 194.071 338.767 193.199 338.489C189.173 337.227 185.205 335.814 181.297 334.249C178.314 333.059 175.365 331.783 172.451 330.42C172.425 330.413 172.4 330.4 172.378 330.384C171.768 330.106 171.152 329.816 170.542 329.52C170.462 329.478 170.377 329.435 170.292 329.393C168.016 328.294 165.765 327.142 163.538 325.938C161.665 321.68 159.03 320.864 157.395 317.12C156.919 316.007 156.575 314.844 156.37 313.653C156.37 313.64 156.364 313.628 156.364 313.61C156.535 315.857 155.638 309.624 156.358 313.586C156.352 313.514 156.346 313.435 156.34 313.344C156.321 313.127 156.297 312.861 156.26 312.529C154.168 292.301 154.302 269.167 153.393 250.104C153.332 248.872 153.269 247.692 153.204 246.565C153.186 246.19 153.161 245.822 153.137 245.46C153.18 245.351 153.228 245.236 153.283 245.127C153.295 245.096 153.309 245.066 153.326 245.037C153.344 244.999 153.364 244.963 153.387 244.928C153.399 244.91 153.418 244.886 153.43 244.868C153.439 244.847 153.449 244.827 153.46 244.807C153.515 244.723 153.576 244.632 153.643 244.548C153.674 244.511 153.698 244.481 153.729 244.451C153.75 244.42 153.774 244.392 153.802 244.366C153.821 244.337 153.843 244.311 153.869 244.288C153.893 244.264 153.918 244.233 153.948 244.203C153.961 244.184 153.978 244.168 153.997 244.155C154.045 244.1 154.098 244.049 154.156 244.004C154.373 243.806 154.606 243.624 154.851 243.46C154.937 243.406 155.028 243.352 155.114 243.291C155.728 242.927 156.376 242.62 157.047 242.373C157.279 242.289 157.511 242.21 157.761 242.125C157.853 242.101 157.938 242.071 158.03 242.041C158.164 241.999 158.298 241.956 158.438 241.926C159.134 241.721 159.884 241.546 160.695 241.382C160.793 241.364 160.897 241.346 161.001 241.322C161.147 241.292 161.299 241.268 161.452 241.244C161.659 241.207 161.873 241.171 162.086 241.135C163.898 240.851 165.954 240.64 168.224 240.501C168.437 240.489 168.651 240.476 168.864 240.464C169.114 240.452 169.364 240.44 169.621 240.428C169.834 240.416 170.054 240.41 170.273 240.404C170.487 240.392 170.706 240.386 170.932 240.38C171.548 240.362 172.183 240.344 172.829 240.332C174.672 240.295 176.612 240.307 178.649 240.35C179.595 240.374 180.559 240.398 181.547 240.44C181.614 240.44 181.675 240.446 181.736 240.446C182.596 240.476 183.463 240.513 184.353 240.561C184.975 240.591 185.604 240.621 186.232 240.658C186.824 240.694 187.422 240.73 188.026 240.772C188.495 240.797 188.965 240.833 189.441 240.863C189.844 240.893 190.246 240.923 190.649 240.948L191.198 240.984C191.497 241.008 191.796 241.026 192.101 241.056C192.772 241.111 193.443 241.165 194.126 241.219C194.803 241.28 195.493 241.34 196.182 241.401C196.871 241.461 197.567 241.527 198.262 241.594C198.336 241.6 198.403 241.606 198.47 241.612C199.104 241.678 199.739 241.739 200.379 241.805C200.526 241.817 200.678 241.829 200.825 241.848C201.435 241.908 202.058 241.979 202.674 242.044C202.863 242.065 203.052 242.084 203.241 242.105C203.724 242.157 204.2 242.202 204.686 242.258C205.327 242.331 205.98 242.397 206.614 242.482C207.108 242.536 207.602 242.591 208.096 242.651C208.871 242.742 209.658 242.838 210.445 242.941C210.744 242.977 211.043 243.013 211.342 243.056C213.587 243.333 215.856 243.642 218.162 243.962C221.658 244.451 225.208 244.982 228.783 245.556C232.364 246.13 235.966 246.736 239.587 247.374C240.502 247.537 241.417 247.7 242.338 247.87C242.753 247.948 243.168 248.027 243.583 248.105C244.291 248.232 244.998 248.365 245.706 248.498C246.414 248.631 247.121 248.763 247.829 248.902C248.671 249.065 249.519 249.229 250.361 249.392C255.906 250.479 261.421 251.639 266.802 252.853C267.686 253.052 268.571 253.257 269.449 253.457C271.206 253.861 272.947 254.272 274.671 254.689C275.147 254.798 275.617 254.912 276.086 255.027C277.258 255.317 278.429 255.607 279.582 255.903L279.783 255.957C280.631 256.163 281.461 256.374 282.291 256.592C284.249 257.099 286.175 257.612 288.068 258.132C289.325 258.476 290.567 258.824 291.795 259.177C293.632 259.702 295.431 260.234 297.182 260.771C297.615 260.904 298.048 261.037 298.475 261.164C299.756 261.556 301.019 261.955 302.245 262.354C303.222 262.668 304.173 262.988 305.113 263.308C306.052 263.628 306.973 263.948 307.876 264.268C308.456 264.474 309.029 264.691 309.603 264.897C310.426 265.199 311.238 265.501 312.031 265.803C312.275 265.893 312.513 265.99 312.751 266.081C312.903 266.147 313.049 266.201 313.196 266.262C313.483 266.376 313.775 266.485 314.056 266.6C314.343 266.709 314.623 266.823 314.904 266.944C315.178 267.053 315.459 267.168 315.728 267.282C316.002 267.391 316.271 267.506 316.539 267.627C316.765 267.717 316.984 267.814 317.198 267.911C317.631 268.098 318.064 268.285 318.485 268.478C318.692 268.575 318.9 268.666 319.107 268.762L319.583 268.98C319.65 269.016 319.717 269.046 319.784 269.076C319.937 269.149 320.096 269.227 320.248 269.3C320.602 269.463 320.95 269.638 321.291 269.801C321.749 270.031 322.194 270.26 322.621 270.484C323.054 270.713 323.475 270.943 323.878 271.166C323.945 271.203 324.006 271.239 324.073 271.275C324.165 271.323 324.256 271.378 324.348 271.426C324.659 271.601 324.958 271.782 325.257 271.958C325.842 272.314 326.397 272.664 326.916 273.015C327.032 273.093 327.142 273.172 327.258 273.244C327.642 273.516 328.008 273.782 328.35 274.053C328.35 274.059 328.35 274.059 328.356 274.059C328.472 274.144 328.581 274.235 328.691 274.319C328.783 274.404 328.88 274.476 328.972 274.561C329.289 274.833 329.582 275.092 329.85 275.358C329.94 275.44 330.026 275.527 330.106 275.618C330.142 275.647 330.175 275.679 330.204 275.714C330.326 275.835 330.436 275.956 330.54 276.077C330.556 276.093 330.57 276.112 330.582 276.131C330.729 276.3 330.863 276.47 330.991 276.639C331.052 276.723 331.119 276.808 331.174 276.892C331.247 276.995 331.32 277.104 331.381 277.206C331.436 277.291 331.485 277.382 331.534 277.466C331.663 277.684 331.774 277.912 331.863 278.149C331.932 278.309 331.987 278.475 332.028 278.644C332.074 278.804 332.109 278.968 332.132 279.133Z" fill="#2F2E41"/>
<path opacity="0.2" d="M332.132 279.133C332.126 280.19 332.114 281.67 332.065 283.5C332.059 283.754 332.046 284.014 332.04 284.279C331.979 286.846 331.888 290.018 331.76 293.599C331.754 293.817 331.748 294.028 331.735 294.246C331.565 298.619 331.296 303.71 330.833 311.774C329.972 326.669 328.472 313.822 326.965 319.046C322.78 316.497 318.192 313.828 313.287 311.085C312.403 310.59 311.51 310.093 310.609 309.594C300.8 304.176 289.843 298.498 278.405 292.875C277.953 292.651 277.496 292.428 277.044 292.21C250.843 279.387 222.244 266.914 199.074 258.591C194.602 256.984 190.332 255.534 186.318 254.26C177.862 251.584 170.554 249.712 164.929 248.902C159.073 248.057 155.028 248.359 153.393 250.104C153.332 248.872 153.269 247.692 153.204 246.565C153.18 246.19 153.155 245.822 153.131 245.46C153.169 245.36 153.217 245.265 153.265 245.17C153.272 245.156 153.276 245.141 153.283 245.127C153.295 245.096 153.309 245.066 153.326 245.037C153.344 244.999 153.364 244.963 153.387 244.928C153.407 244.885 153.431 244.845 153.46 244.807C153.515 244.723 153.576 244.632 153.643 244.547C153.693 244.484 153.746 244.424 153.802 244.366C153.821 244.337 153.843 244.311 153.869 244.288C153.893 244.264 153.918 244.233 153.948 244.203C153.961 244.184 153.978 244.168 153.997 244.155C154.045 244.1 154.098 244.049 154.156 244.004C154.373 243.806 154.606 243.624 154.851 243.46C154.937 243.406 155.028 243.352 155.114 243.291C155.728 242.927 156.376 242.62 157.047 242.373C157.279 242.288 157.511 242.21 157.761 242.125C157.853 242.101 157.938 242.071 158.03 242.041C158.164 241.999 158.298 241.956 158.438 241.926C159.134 241.721 159.884 241.546 160.695 241.382C160.94 241.334 161.196 241.286 161.452 241.244C161.659 241.207 161.873 241.171 162.086 241.135C163.898 240.851 165.954 240.64 168.224 240.501C168.437 240.489 168.651 240.476 168.864 240.464C169.114 240.452 169.364 240.44 169.621 240.428C169.834 240.416 170.054 240.41 170.273 240.404C170.487 240.392 170.706 240.386 170.932 240.38C171.548 240.362 172.183 240.344 172.829 240.331C174.672 240.301 176.612 240.313 178.649 240.356C179.595 240.374 180.559 240.404 181.547 240.446C181.608 240.446 181.675 240.452 181.736 240.452C182.596 240.476 183.469 240.519 184.353 240.561C184.976 240.591 185.604 240.621 186.232 240.658C186.824 240.694 187.422 240.73 188.026 240.772C188.495 240.797 188.965 240.833 189.441 240.863C189.844 240.893 190.246 240.923 190.649 240.948C191.131 240.984 191.613 241.02 192.101 241.056C192.772 241.111 193.443 241.165 194.126 241.219C194.803 241.28 195.493 241.34 196.182 241.401C196.871 241.461 197.567 241.527 198.262 241.594C198.336 241.6 198.403 241.606 198.47 241.612C199.104 241.678 199.739 241.739 200.379 241.805C203.93 242.162 207.584 242.578 211.342 243.056C213.587 243.339 215.86 243.643 218.162 243.968C221.658 244.457 225.208 244.988 228.783 245.556C232.364 246.13 235.966 246.736 239.587 247.374C240.502 247.537 241.417 247.7 242.339 247.87C243.461 248.075 244.584 248.284 245.706 248.498C246.414 248.631 247.121 248.763 247.829 248.902C248.671 249.065 249.519 249.229 250.361 249.392C255.906 250.479 261.421 251.639 266.802 252.853C267.686 253.052 268.571 253.257 269.449 253.457C271.206 253.861 272.947 254.272 274.671 254.689C275.147 254.804 275.617 254.918 276.087 255.033C277.264 255.323 278.429 255.613 279.582 255.903V255.909C279.649 255.921 279.716 255.939 279.783 255.957C280.625 256.169 281.461 256.38 282.291 256.598C284.249 257.105 286.175 257.616 288.068 258.132C289.325 258.482 290.569 258.826 291.795 259.177C293.632 259.708 295.431 260.24 297.182 260.771C297.615 260.904 298.048 261.037 298.475 261.164C299.757 261.562 301.013 261.959 302.246 262.354C303.222 262.668 304.173 262.988 305.113 263.308C306.052 263.628 306.973 263.948 307.876 264.268C308.462 264.474 309.035 264.685 309.603 264.891C310.432 265.193 311.238 265.495 312.031 265.803C312.275 265.893 312.513 265.99 312.751 266.081C313.196 266.25 313.629 266.425 314.056 266.6C314.343 266.709 314.623 266.823 314.904 266.944C315.179 267.053 315.459 267.168 315.728 267.282C316.002 267.391 316.271 267.506 316.539 267.627C316.765 267.717 316.984 267.814 317.198 267.911C317.631 268.098 318.064 268.285 318.485 268.478C318.692 268.575 318.9 268.666 319.107 268.762L319.583 268.98C319.65 269.016 319.717 269.046 319.784 269.076C320.303 269.318 320.803 269.56 321.291 269.801C321.749 270.031 322.194 270.26 322.621 270.484C323.128 270.749 323.609 271.009 324.073 271.275C324.165 271.323 324.256 271.378 324.348 271.426C324.659 271.601 324.958 271.782 325.257 271.958C325.842 272.314 326.397 272.664 326.916 273.015C327.428 273.365 327.904 273.709 328.35 274.053C328.35 274.059 328.35 274.059 328.356 274.059C328.569 274.229 328.777 274.398 328.972 274.561C329.289 274.833 329.582 275.092 329.85 275.358C329.94 275.44 330.026 275.527 330.107 275.618C330.142 275.647 330.175 275.679 330.204 275.714C330.332 275.853 330.46 275.992 330.582 276.131C330.729 276.3 330.863 276.469 330.991 276.639C331.052 276.723 331.119 276.808 331.174 276.892C331.247 276.995 331.321 277.104 331.382 277.206C331.436 277.291 331.485 277.382 331.534 277.466C331.664 277.684 331.774 277.912 331.863 278.149C331.93 278.31 331.985 278.475 332.028 278.644C332.074 278.804 332.109 278.968 332.132 279.133Z" fill="black"/>
</g>
<defs>
<clipPath id="clip0_4_64">
<rect width="480" height="345.651" fill="white" transform="translate(0.269104 0.4198)"/>
</clipPath>
</defs>
</svg>
